<svg width="21" height="37" viewBox="0 0 21 37" fill="none" xmlns="http://www.w3.org/2000/svg">
<path d="M19.3511 34.7262L19.3507 34.7266C18.3787 35.7953 16.768 35.8161 15.7972 34.8209L1.60003 20.2676L1.59968 20.2673C1.35878 20.0209 1.16444 19.7249 1.02913 19.3957C0.893808 19.0665 0.820586 18.7114 0.814294 18.3509C0.808001 17.9904 0.868785 17.633 0.992536 17.2992C1.11628 16.9655 1.30017 16.663 1.53232 16.4083L1.53266 16.4079L15.2133 1.36805C15.6811 0.853729 16.3162 0.564327 16.9766 0.552799C17.6371 0.54127 18.2819 0.808333 18.7674 1.30602C19.2539 1.8047 19.5391 2.49365 19.5518 3.22279C19.5646 3.95193 19.3035 4.65041 18.8348 5.16577L7.27032 17.8792L6.95338 18.2276L7.28229 18.5648L19.2834 30.8669L19.2837 30.8672C19.5246 31.1137 19.719 31.4096 19.8543 31.7388C19.9896 32.068 20.0628 32.4231 20.0691 32.7836C20.0754 33.1441 20.0146 33.5015 19.8909 33.8353C19.7671 34.169 19.5832 34.4715 19.3511 34.7262Z" fill="#0F0D0D"/>
<path d="M19.3511 34.7262L19.3507 34.7266C18.3787 35.7953 16.768 35.8161 15.7972 34.8209L1.60003 20.2676L1.59968 20.2673C1.35878 20.0209 1.16444 19.7249 1.02913 19.3957C0.893808 19.0665 0.820586 18.7114 0.814294 18.3509C0.808001 17.9904 0.868785 17.633 0.992536 17.2992C1.11628 16.9655 1.30017 16.663 1.53232 16.4083L1.53266 16.4079L15.2133 1.36805C15.6811 0.853729 16.3162 0.564327 16.9766 0.552799C17.6371 0.54127 18.2819 0.808333 18.7674 1.30602C19.2539 1.8047 19.5391 2.49365 19.5518 3.22279C19.5646 3.95193 19.3035 4.65041 18.8348 5.16577L7.27032 17.8792L6.95338 18.2276L7.28229 18.5648L19.2834 30.8669L19.2837 30.8672C19.5246 31.1137 19.719 31.4096 19.8543 31.7388C19.9896 32.068 20.0628 32.4231 20.0691 32.7836C20.0754 33.1441 20.0146 33.5015 19.8909 33.8353C19.7671 34.169 19.5832 34.4715 19.3511 34.7262Z" fill="#0F0D0D"/>
<path d="M19.3511 34.7262L19.3507 34.7266C18.3787 35.7953 16.768 35.8161 15.7972 34.8209L1.60003 20.2676L1.59968 20.2673C1.35878 20.0209 1.16444 19.7249 1.02913 19.3957C0.893808 19.0665 0.820586 18.7114 0.814294 18.3509C0.808001 17.9904 0.868785 17.633 0.992536 17.2992C1.11628 16.9655 1.30017 16.663 1.53232 16.4083L1.53266 16.4079L15.2133 1.36805C15.6811 0.853729 16.3162 0.564327 16.9766 0.552799C17.6371 0.54127 18.2819 0.808333 18.7674 1.30602C19.2539 1.8047 19.5391 2.49365 19.5518 3.22279C19.5646 3.95193 19.3035 4.65041 18.8348 5.16577L7.27032 17.8792L6.95338 18.2276L7.28229 18.5648L19.2834 30.8669L19.2837 30.8672C19.5246 31.1137 19.719 31.4096 19.8543 31.7388C19.9896 32.068 20.0628 32.4231 20.0691 32.7836C20.0754 33.1441 20.0146 33.5015 19.8909 33.8353C19.7671 34.169 19.5832 34.4715 19.3511 34.7262Z" stroke="black"/>
</svg>
