<svg width="22" height="37" viewBox="0 0 22 37" fill="none" xmlns="http://www.w3.org/2000/svg">
<path d="M1.30363 1.30864L1.304 1.30828C2.37949 0.232783 4.1429 0.239286 5.17939 1.27578L20.0969 16.1933L20.0973 16.1936C20.352 16.4479 20.5541 16.7498 20.692 17.0823C20.8299 17.4147 20.9009 17.7711 20.9009 18.131C20.9009 18.4909 20.8299 18.8472 20.692 19.1797C20.5541 19.5121 20.352 19.8141 20.0973 20.0683L20.0969 20.0687L5.17939 34.9862C4.66548 35.5001 3.96847 35.7888 3.24169 35.7888C2.51491 35.7888 1.8179 35.5001 1.304 34.9862C0.790089 34.4723 0.501376 33.7753 0.501376 33.0485C0.501376 32.3217 0.790087 31.6247 1.304 31.1108L13.914 18.5008L14.2675 18.1472L13.914 17.7937L1.304 5.18367L1.30363 5.18331C1.04889 4.92908 0.846778 4.62711 0.70888 4.29468C0.570981 3.96224 0.5 3.60588 0.5 3.24598C0.5 2.88608 0.570981 2.52971 0.70888 2.19728C0.846778 1.86484 1.04889 1.56287 1.30363 1.30864Z" fill="#0F0D0D"/>
<path d="M1.30363 1.30864L1.304 1.30828C2.37949 0.232783 4.1429 0.239286 5.17939 1.27578L20.0969 16.1933L20.0973 16.1936C20.352 16.4479 20.5541 16.7498 20.692 17.0823C20.8299 17.4147 20.9009 17.7711 20.9009 18.131C20.9009 18.4909 20.8299 18.8472 20.692 19.1797C20.5541 19.5121 20.352 19.8141 20.0973 20.0683L20.0969 20.0687L5.17939 34.9862C4.66548 35.5001 3.96847 35.7888 3.24169 35.7888C2.51491 35.7888 1.8179 35.5001 1.304 34.9862C0.790089 34.4723 0.501376 33.7753 0.501376 33.0485C0.501376 32.3217 0.790087 31.6247 1.304 31.1108L13.914 18.5008L14.2675 18.1472L13.914 17.7937L1.304 5.18367L1.30363 5.18331C1.04889 4.92908 0.846778 4.62711 0.70888 4.29468C0.570981 3.96224 0.5 3.60588 0.5 3.24598C0.5 2.88608 0.570981 2.52971 0.70888 2.19728C0.846778 1.86484 1.04889 1.56287 1.30363 1.30864Z" fill="#0F0D0D"/>
<path d="M1.30363 1.30864L1.304 1.30828C2.37949 0.232783 4.1429 0.239286 5.17939 1.27578L20.0969 16.1933L20.0973 16.1936C20.352 16.4479 20.5541 16.7498 20.692 17.0823C20.8299 17.4147 20.9009 17.7711 20.9009 18.131C20.9009 18.4909 20.8299 18.8472 20.692 19.1797C20.5541 19.5121 20.352 19.8141 20.0973 20.0683L20.0969 20.0687L5.17939 34.9862C4.66548 35.5001 3.96847 35.7888 3.24169 35.7888C2.51491 35.7888 1.8179 35.5001 1.304 34.9862C0.790089 34.4723 0.501376 33.7753 0.501376 33.0485C0.501376 32.3217 0.790087 31.6247 1.304 31.1108L13.914 18.5008L14.2675 18.1472L13.914 17.7937L1.304 5.18367L1.30363 5.18331C1.04889 4.92908 0.846778 4.62711 0.70888 4.29468C0.570981 3.96224 0.5 3.60588 0.5 3.24598C0.5 2.88608 0.570981 2.52971 0.70888 2.19728C0.846778 1.86484 1.04889 1.56287 1.30363 1.30864Z" stroke="black"/>
</svg>
